<?xml version="1.0" encoding="UTF-8"?>
<svg width="148px" height="248px" viewBox="0 0 148 248" version="1.1" xmlns="http://www.w3.org/2000/svg" xmlns:xlink="http://www.w3.org/1999/xlink">
    <!-- Generator: Sketch 42 (36781) - http://www.bohemiancoding.com/sketch -->
    <title>Layer_1</title>
    <desc>Created with Sketch.</desc>
    <defs></defs>
    <g id="Latest" stroke="none" stroke-width="1" fill="none" fill-rule="evenodd">
        <g id="2" transform="translate(-1366.000000, -416.000000)" fill="#2B2E32">
            <g id="logo-copy" transform="translate(1366.000000, 416.000000)">
                <g id="Layer_1">
                    <path d="M31.9427914,238.307924 L25.6170651,185.261416 C25.5727849,184.883239 25.7331739,184.510263 26.0365564,184.285913 C26.339939,184.061562 26.7390742,184.020771 27.0804794,184.179225 L55.6406619,197.5869 C55.9162945,197.715614 56.2336364,197.715614 56.5092691,197.5869 L103.602886,175.85689 C103.923652,175.711017 104.295393,175.739636 104.590781,175.932944 C104.886169,176.126252 105.065105,176.458009 105.0663,176.814581 L105.0663,246.496183 C105.058722,246.839993 104.886182,247.158408 104.604092,247.349167 C104.322003,247.539926 103.965879,247.579013 103.650093,247.453874 L55.3290962,227.830784 C55.0534636,227.70207 54.7361217,227.70207 54.460489,227.830784 L33.4250885,239.112385 C33.125805,239.259698 32.7750637,239.252671 32.4817483,239.093485 C32.1884329,238.934299 31.9880445,238.642221 31.9427914,238.307924 Z" id="Shape"></path>
                    <path d="M39.3577042,172.26969 L39.3577042,185.37092 C39.3606671,185.776143 39.5865681,186.14573 39.943069,186.328612 L41.7652528,187.286305 C42.0954999,187.459937 42.4910604,187.446558 42.8091711,187.250996 C43.1272818,187.055433 43.322011,186.705925 43.3230783,186.328612 L43.3230783,182.038151 C43.3365125,181.61985 43.5865253,181.246905 43.9650913,181.080459 L70.4009187,169.243383 C70.8708182,169.041033 71.1335573,168.529384 71.0276952,168.022821 C70.9218331,167.516258 70.4770381,167.156747 69.9666158,167.16519 L28.6511941,167.16519 C28.1103604,167.163978 27.6559796,166.752456 27.593761,166.207498 L22.4387746,125.457693 C22.376556,124.912735 21.9221753,124.501213 21.3813416,124.500001 L19.360889,124.500001 C19.0513509,124.499616 18.7569076,124.635617 18.5539746,124.872708 C18.3510416,125.109799 18.2596273,125.424605 18.3034559,125.735424 L24.2892826,170.258536 C24.3515012,170.803494 24.805882,171.215016 25.3467157,171.216229 L38.3380366,171.216229 C38.8979531,171.241198 39.3433656,171.701372 39.3577042,172.26969 L39.3577042,172.26969 Z" id="Shape"></path>
                    <path d="M30.1639568,118.975295 L6.6643213,118.975295 C6.15386135,118.974371 5.7169206,118.603683 5.6257677,118.094217 L0.0175782632,86.9404493 C-0.0200050233,86.7339836 0.00297448377,86.5208691 0.0836680377,86.3275256 L0.687917405,84.8718315 C0.850128855,84.4862565 1.21892409,84.2318756 1.63205704,84.2206 L32.382685,84.2206 C32.7432779,84.2206701 33.0785097,84.4087797 33.2701762,84.7186006 L35.4039318,88.1088353 C35.5968575,88.4173032 35.931291,88.6049648 36.2914231,88.6068359 L41.0970938,88.6068359 C41.4216714,88.6061848 41.727974,88.4543657 41.9279367,88.1950277 L44.6565003,84.6419851 C44.856463,84.3826472 45.1627655,84.230828 45.4873431,84.2301769 L90.1923549,84.2301769 C90.5437226,84.2289097 90.8727614,84.404763 91.0704048,84.6994467 L91.8729235,85.9061404 C91.9813022,86.0685779 92.1315163,86.1977616 92.3072277,86.2796409 L128.543307,103.384046 C129.026212,103.613599 129.265025,104.171986 129.100349,104.686509 L128.62828,106.170933 C128.542027,106.445863 128.350222,106.673955 128.096174,106.803703 C127.842127,106.933452 127.547261,106.953915 127.27816,106.860473 L92.0806342,93.8071113 C91.7780601,93.6934928 91.4409032,93.7262114 91.1650552,93.8959616 C90.8892071,94.0657119 90.7048527,94.3539186 90.6644247,94.6786123 L87.6715021,118.237871 C87.5259523,118.672818 87.1235356,118.965486 86.6707141,118.965718 L47.960989,118.965718 C47.4945071,118.964318 47.0840387,118.65302 46.9507596,118.199563 L41.8712883,94.4679197 C41.7380092,94.014463 41.3275409,93.7031651 40.8610589,93.701765 L36.980645,93.701765 C36.4760661,93.7009335 36.0412046,94.061837 35.9420914,94.5636891 L31.2213932,118.113371 C31.120967,118.622377 30.6756134,118.985388 30.1639568,118.975295 Z M27.6336187,114.18683 L31.8539231,91.9205873 C31.916085,91.6146627 31.84369,91.2964494 31.6556537,91.0490913 L30.6548657,89.6317133 C30.4568428,89.3498573 30.1369076,89.1822449 29.7956986,89.1816 L5.80510908,89.1816 C5.49586175,89.1831233 5.20276998,89.3218878 5.00301171,89.5613534 C4.80325344,89.800819 4.71685072,90.1169838 4.76655542,90.4265942 L8.54311417,114.138946 C8.62668808,114.659594 9.07107131,115.041319 9.59110923,115.039172 L26.5856236,115.039172 C27.0996418,115.042895 27.5418405,114.671129 27.6336187,114.158099 L27.6336187,114.18683 Z M46.4220117,91.8819718 L50.5573508,114.224797 C50.684649,114.689247 51.1017762,115.010498 51.5770234,115.0101 L82.9130746,115.0101 C83.3769696,115.009982 83.7866224,114.703189 83.9233058,114.253527 L86.349749,90.732748 C86.4486417,90.4074108 86.3893966,90.0537713 86.1901073,89.779832 C85.9908181,89.5058927 85.6751533,89.3441879 85.3395178,89.3441027 L48.3102944,89.3441027 C47.9757962,89.3433449 47.6606685,89.5031692 47.4605672,89.7750616 L46.5919572,90.9530159 C46.4021262,91.2106335 46.3362821,91.5410618 46.4125703,91.8532412 L46.4220117,91.8819718 Z" id="Shape"></path>
                    <path d="M136.433322,86.4901596 C136.433322,86.4901596 141.796012,86.8828122 144.213,78.4264169 C146.629987,69.9700215 149.802283,59.1481339 143.712608,47.1387118 C137.622932,35.1292896 122.290169,21.8461409 108.288637,26.6345867 C94.2871048,31.4230326 97.4216353,54.0053431 106.929082,66.4648792 C116.436528,78.9244152 133.487618,87.78304 136.433322,86.4901596 Z" id="Shape"></path>
                    <path d="M91.3533512,34.624005 L91.4288822,34.5761203 C92.3730203,34.0781195 109.443037,24.3575271 100.398194,15.4222437 C86.8309297,2.01453005 52.5587172,-4.10513354 32.7412587,2.97222388 L32.6657277,2.97222388 C32.3824863,3.08714714 30.5886239,3.83414833 28.0111269,5.19407357 C18.4658909,10.2602739 -1.75754695,23.8499494 5.02136452,45.4172145 C6.81816359,50.5113178 9.72235816,55.1298225 13.5186073,58.9302745 C13.7697629,59.1850481 13.915061,59.5278021 13.9245867,59.8879683 L14.0001177,77.6244581 C14.0053071,78.3982274 14.6251661,79.022709 15.3880007,79.0226911 L16.7664423,79.0226911 C17.431272,79.0250843 18.0030566,78.5457835 18.1260012,77.8830354 C18.9096358,73.6117209 21.9025535,58.7291588 25.2259196,56.7180017 C25.3546747,56.6449948 25.4954333,56.59632 25.6413403,56.5743477 C29.0307961,56.0859238 71.6019824,48.0029879 91.3533512,34.624005 Z" id="Shape"></path>
                </g>
            </g>
        </g>
    </g>
</svg>